<svg width="13" height="15" viewBox="0 0 13 15" fill="none" xmlns="http://www.w3.org/2000/svg">
<path d="M0.346924 10.8721C0.346924 11.3643 0.729736 11.6924 1.35864 11.6924H4.06567C4.12036 12.9365 5.10474 14.044 6.5061 14.044C7.90747 14.044 8.89185 12.9434 8.95337 11.6924H11.6536C12.2825 11.6924 12.6653 11.3643 12.6653 10.8721C12.6653 10.209 12.0159 9.62794 11.4485 9.05372C11.011 8.60938 10.9016 7.7002 10.8401 6.90723C10.7786 4.39161 10.1018 2.75098 8.39282 2.12891C8.16724 1.28126 7.46313 0.618172 6.5061 0.618172C5.54907 0.618172 4.85181 1.28126 4.61938 2.12891C2.9104 2.75098 2.23364 4.39161 2.17212 6.90723C2.11743 7.7002 2.00122 8.60938 1.56372 9.05372C0.996338 9.62794 0.346924 10.209 0.346924 10.8721ZM1.70044 10.6533V10.5713C1.83716 10.3867 2.21997 10.0176 2.5481 9.64161C3.0061 9.12891 3.22485 8.26075 3.27954 7.00977C3.34106 4.25489 4.16821 3.35938 5.25513 3.06544C5.41919 3.02442 5.50806 2.94923 5.51489 2.77833C5.54224 2.10841 5.91821 1.6504 6.5061 1.6504C7.09399 1.6504 7.47681 2.10841 7.49731 2.77833C7.51099 2.94923 7.59985 3.02442 7.75708 3.06544C8.84399 3.35938 9.67114 4.25489 9.73267 7.00977C9.79419 8.26075 10.0061 9.12891 10.4641 9.64161C10.7991 10.0176 11.175 10.3867 11.3049 10.5713V10.6533H1.70044ZM5.14575 11.6924H7.87329C7.82544 12.5469 7.27173 13.0938 6.5061 13.0938C5.74048 13.0938 5.1936 12.5469 5.14575 11.6924Z" fill="white" fill-opacity="0.6"/>
</svg>
