<svg width="15" height="16" viewBox="0 0 15 16" fill="none" xmlns="http://www.w3.org/2000/svg">
<path d="M7.4426 15.29C11.4074 15.29 14.6613 12.0293 14.6613 8.06445C14.6613 4.10645 11.4006 0.845703 7.4426 0.845703C3.47775 0.845703 0.223846 4.10645 0.223846 8.06445C0.223846 12.0293 3.48459 15.29 7.4426 15.29ZM4.76291 11.4893C4.2092 11.7285 3.78537 11.3047 4.02463 10.751L5.74045 6.91602C5.86349 6.64258 6.04123 6.47168 6.30099 6.3623L10.1154 4.64648C10.6965 4.39355 11.1067 4.81738 10.8674 5.38477L9.15158 9.21289C9.03537 9.47266 8.85764 9.65039 8.59103 9.7666L4.76291 11.4893ZM7.44943 9.02832C7.9758 9.02832 8.39963 8.60449 8.39963 8.07812C8.39963 7.55176 7.9758 7.12109 7.44943 7.12109C6.92307 7.12109 6.4924 7.55176 6.4924 8.07812C6.4924 8.60449 6.92307 9.02832 7.44943 9.02832Z" fill="white"/>
</svg>
