<svg width="13" height="16" viewBox="0 0 13 16" fill="none" xmlns="http://www.w3.org/2000/svg">
<path d="M3.18381 1.63867H9.49338C9.4592 1.07812 9.13791 0.78418 8.52951 0.78418H4.15451C3.54611 0.78418 3.22482 1.07812 3.18381 1.63867ZM2.06271 3.45703H10.6145C10.5188 2.8623 10.2317 2.52734 9.56857 2.52734H3.11545C2.45236 2.52734 2.15842 2.8623 2.06271 3.45703ZM2.71213 15.8916H10.1701C11.3596 15.8916 12.05 15.208 12.05 13.8613V6.5332C12.05 5.17969 11.3528 4.49609 9.98557 4.49609H2.71213C1.34494 4.49609 0.647675 5.17969 0.647675 6.5332V13.8613C0.647675 15.208 1.34494 15.8916 2.71213 15.8916ZM4.27756 11.9199C3.01974 11.9199 2.09689 12.6514 1.76877 13.4717V6.60156C1.76877 5.94531 2.1174 5.61035 2.74631 5.61035H9.95139C10.5735 5.61035 10.9289 5.94531 10.9289 6.60156V13.0889C10.4436 12.4463 9.56174 11.9336 8.39963 11.9336C6.54709 11.9336 5.38498 13.2598 5.38498 14.2988C5.38498 14.5107 5.43283 14.668 5.50119 14.7773H4.69455C4.65353 14.627 4.63303 14.4629 4.63303 14.2988C4.63303 13.5264 5.00217 12.8018 5.61057 12.2412C5.2551 12.0293 4.8176 11.9199 4.27756 11.9199ZM8.39963 11.1611C9.17209 11.1611 9.82834 10.4775 9.82834 9.58203C9.82834 8.7002 9.17209 8.04395 8.39963 8.04395C7.634 8.04395 6.96408 8.7207 6.97092 9.5957C6.97092 10.4775 7.634 11.1611 8.39963 11.1611ZM4.28439 11.25C4.95432 11.25 5.52853 10.6484 5.52853 9.8623C5.52853 9.09668 4.95432 8.5293 4.28439 8.5293C3.61447 8.5293 3.03342 9.11035 3.03342 9.86914C3.03342 10.6484 3.61447 11.25 4.28439 11.25Z" fill="white" fill-opacity="0.6"/>
</svg>
